<svg xmlns="http://www.w3.org/2000/svg" width="91" height="81" viewBox="0 0 91 81">
  <g id="Group_8" data-name="Group 8" transform="translate(-1809 -153)">
    <g id="Group_2" data-name="Group 2" transform="translate(150 -15)">
      <g id="Group_4" data-name="Group 4" transform="translate(1670 168)">
        <g id="Group_2-2" data-name="Group 2" transform="translate(-11.5)">
          <circle id="Ellipse_1" data-name="Ellipse 1" cx="3" cy="3" r="3" transform="translate(0.5)" fill="#2a8faf"/>
          <circle id="Ellipse_2" data-name="Ellipse 2" cx="3" cy="3" r="3" transform="translate(12.5)" fill="#2a8faf"/>
          <circle id="Ellipse_3" data-name="Ellipse 3" cx="3" cy="3" r="3" transform="translate(24.5)" fill="#2a8faf"/>
          <circle id="Ellipse_4" data-name="Ellipse 4" cx="3" cy="3" r="3" transform="translate(36.5)" fill="#2a8faf"/>
          <circle id="Ellipse_5" data-name="Ellipse 5" cx="3" cy="3" r="3" transform="translate(48.5)" fill="#2a8faf"/>
          <circle id="Ellipse_6" data-name="Ellipse 6" cx="3" cy="3" r="3" transform="translate(60.5)" fill="#2a8faf"/>
          <circle id="Ellipse_7" data-name="Ellipse 7" cx="3" cy="3" r="3" transform="translate(72.5)" fill="#2a8faf"/>
          <circle id="Ellipse_8" data-name="Ellipse 8" cx="3" cy="3" r="3" transform="translate(84.5)" fill="#2a8faf"/>
        </g>
        <g id="Group_3" data-name="Group 3" transform="translate(-11.5)">
          <circle id="Ellipse_1-2" data-name="Ellipse 1" cx="3" cy="3" r="3" transform="translate(0.5)" fill="#2a8faf"/>
          <circle id="Ellipse_2-2" data-name="Ellipse 2" cx="3" cy="3" r="3" transform="translate(12.5)" fill="#2a8faf"/>
          <circle id="Ellipse_3-2" data-name="Ellipse 3" cx="3" cy="3" r="3" transform="translate(24.5)" fill="#2a8faf"/>
          <circle id="Ellipse_4-2" data-name="Ellipse 4" cx="3" cy="3" r="3" transform="translate(36.5)" fill="#2a8faf"/>
          <circle id="Ellipse_5-2" data-name="Ellipse 5" cx="3" cy="3" r="3" transform="translate(48.5)" fill="#2a8faf"/>
          <circle id="Ellipse_6-2" data-name="Ellipse 6" cx="3" cy="3" r="3" transform="translate(60.5)" fill="#2a8faf"/>
          <circle id="Ellipse_7-2" data-name="Ellipse 7" cx="3" cy="3" r="3" transform="translate(72.5)" fill="#2a8faf"/>
          <circle id="Ellipse_8-2" data-name="Ellipse 8" cx="3" cy="3" r="3" transform="translate(84.5)" fill="#2a8faf"/>
        </g>
        <circle id="Ellipse_1-3" data-name="Ellipse 1" cx="3" cy="3" r="3" transform="translate(49)" fill="#2a8faf"/>
        <circle id="Ellipse_2-3" data-name="Ellipse 2" cx="3" cy="3" r="3" transform="translate(25)" fill="#2a8faf"/>
        <circle id="Ellipse_3-3" data-name="Ellipse 3" cx="3" cy="3" r="3" transform="translate(37)" fill="#2a8faf"/>
        <circle id="Ellipse_4-3" data-name="Ellipse 4" cx="3" cy="3" r="3" transform="translate(49)" fill="#2a8faf"/>
        <circle id="Ellipse_5-3" data-name="Ellipse 5" cx="3" cy="3" r="3" transform="translate(61)" fill="#2a8faf"/>
      </g>
      <g id="Group_5" data-name="Group 5" transform="translate(1670 183)">
        <g id="Group_2-3" data-name="Group 2" transform="translate(-11.5)">
          <circle id="Ellipse_1-4" data-name="Ellipse 1" cx="3" cy="3" r="3" transform="translate(0.5)" fill="#2a8faf"/>
          <circle id="Ellipse_2-4" data-name="Ellipse 2" cx="3" cy="3" r="3" transform="translate(12.5)" fill="#2a8faf"/>
          <circle id="Ellipse_3-4" data-name="Ellipse 3" cx="3" cy="3" r="3" transform="translate(24.5)" fill="#2a8faf"/>
          <circle id="Ellipse_4-4" data-name="Ellipse 4" cx="3" cy="3" r="3" transform="translate(36.5)" fill="#2a8faf"/>
          <circle id="Ellipse_5-4" data-name="Ellipse 5" cx="3" cy="3" r="3" transform="translate(48.5)" fill="#2a8faf"/>
          <circle id="Ellipse_6-3" data-name="Ellipse 6" cx="3" cy="3" r="3" transform="translate(60.5)" fill="#2a8faf"/>
          <circle id="Ellipse_7-3" data-name="Ellipse 7" cx="3" cy="3" r="3" transform="translate(72.5)" fill="#2a8faf"/>
          <circle id="Ellipse_8-3" data-name="Ellipse 8" cx="3" cy="3" r="3" transform="translate(84.5)" fill="#2a8faf"/>
        </g>
        <g id="Group_3-2" data-name="Group 3" transform="translate(-11.5)">
          <circle id="Ellipse_1-5" data-name="Ellipse 1" cx="3" cy="3" r="3" transform="translate(0.5)" fill="#2a8faf"/>
          <circle id="Ellipse_2-5" data-name="Ellipse 2" cx="3" cy="3" r="3" transform="translate(12.5)" fill="#2a8faf"/>
          <circle id="Ellipse_3-5" data-name="Ellipse 3" cx="3" cy="3" r="3" transform="translate(24.5)" fill="#2a8faf"/>
          <circle id="Ellipse_4-5" data-name="Ellipse 4" cx="3" cy="3" r="3" transform="translate(36.5)" fill="#2a8faf"/>
          <circle id="Ellipse_5-5" data-name="Ellipse 5" cx="3" cy="3" r="3" transform="translate(48.5)" fill="#2a8faf"/>
          <circle id="Ellipse_6-4" data-name="Ellipse 6" cx="3" cy="3" r="3" transform="translate(60.5)" fill="#2a8faf"/>
          <circle id="Ellipse_7-4" data-name="Ellipse 7" cx="3" cy="3" r="3" transform="translate(72.5)" fill="#2a8faf"/>
          <circle id="Ellipse_8-4" data-name="Ellipse 8" cx="3" cy="3" r="3" transform="translate(84.5)" fill="#2a8faf"/>
        </g>
        <circle id="Ellipse_1-6" data-name="Ellipse 1" cx="3" cy="3" r="3" transform="translate(49)" fill="#2a8faf"/>
        <circle id="Ellipse_2-6" data-name="Ellipse 2" cx="3" cy="3" r="3" transform="translate(25)" fill="#2a8faf"/>
        <circle id="Ellipse_3-6" data-name="Ellipse 3" cx="3" cy="3" r="3" transform="translate(37)" fill="#2a8faf"/>
        <circle id="Ellipse_4-6" data-name="Ellipse 4" cx="3" cy="3" r="3" transform="translate(49)" fill="#2a8faf"/>
        <circle id="Ellipse_5-6" data-name="Ellipse 5" cx="3" cy="3" r="3" transform="translate(61)" fill="#2a8faf"/>
      </g>
      <g id="Group_6" data-name="Group 6" transform="translate(1671 198)">
        <g id="Group_2-4" data-name="Group 2" transform="translate(-11.5)">
          <circle id="Ellipse_1-7" data-name="Ellipse 1" cx="3" cy="3" r="3" transform="translate(0.5)" fill="#2a8faf"/>
          <circle id="Ellipse_2-7" data-name="Ellipse 2" cx="3" cy="3" r="3" transform="translate(12.5)" fill="#2a8faf"/>
          <circle id="Ellipse_3-7" data-name="Ellipse 3" cx="3" cy="3" r="3" transform="translate(24.5)" fill="#2a8faf"/>
          <circle id="Ellipse_4-7" data-name="Ellipse 4" cx="3" cy="3" r="3" transform="translate(36.5)" fill="#2a8faf"/>
          <circle id="Ellipse_5-7" data-name="Ellipse 5" cx="3" cy="3" r="3" transform="translate(48.5)" fill="#2a8faf"/>
          <circle id="Ellipse_6-5" data-name="Ellipse 6" cx="3" cy="3" r="3" transform="translate(60.5)" fill="#2a8faf"/>
          <circle id="Ellipse_7-5" data-name="Ellipse 7" cx="3" cy="3" r="3" transform="translate(72.5)" fill="#2a8faf"/>
          <circle id="Ellipse_8-5" data-name="Ellipse 8" cx="3" cy="3" r="3" transform="translate(84.5)" fill="#2a8faf"/>
        </g>
        <g id="Group_3-3" data-name="Group 3" transform="translate(-11.5)">
          <circle id="Ellipse_1-8" data-name="Ellipse 1" cx="3" cy="3" r="3" transform="translate(0.5)" fill="#2a8faf"/>
          <circle id="Ellipse_2-8" data-name="Ellipse 2" cx="3" cy="3" r="3" transform="translate(12.5)" fill="#2a8faf"/>
          <circle id="Ellipse_3-8" data-name="Ellipse 3" cx="3" cy="3" r="3" transform="translate(24.5)" fill="#2a8faf"/>
          <circle id="Ellipse_4-8" data-name="Ellipse 4" cx="3" cy="3" r="3" transform="translate(36.5)" fill="#2a8faf"/>
          <circle id="Ellipse_5-8" data-name="Ellipse 5" cx="3" cy="3" r="3" transform="translate(48.5)" fill="#2a8faf"/>
          <circle id="Ellipse_6-6" data-name="Ellipse 6" cx="3" cy="3" r="3" transform="translate(60.5)" fill="#2a8faf"/>
          <circle id="Ellipse_7-6" data-name="Ellipse 7" cx="3" cy="3" r="3" transform="translate(72.5)" fill="#2a8faf"/>
          <circle id="Ellipse_8-6" data-name="Ellipse 8" cx="3" cy="3" r="3" transform="translate(84.5)" fill="#2a8faf"/>
        </g>
        <circle id="Ellipse_1-9" data-name="Ellipse 1" cx="3" cy="3" r="3" transform="translate(49)" fill="#2a8faf"/>
        <circle id="Ellipse_2-9" data-name="Ellipse 2" cx="3" cy="3" r="3" transform="translate(25)" fill="#2a8faf"/>
        <circle id="Ellipse_3-9" data-name="Ellipse 3" cx="3" cy="3" r="3" transform="translate(37)" fill="#2a8faf"/>
        <circle id="Ellipse_4-9" data-name="Ellipse 4" cx="3" cy="3" r="3" transform="translate(49)" fill="#2a8faf"/>
        <circle id="Ellipse_5-9" data-name="Ellipse 5" cx="3" cy="3" r="3" transform="translate(61)" fill="#2a8faf"/>
      </g>
    </g>
    <g id="Group_7" data-name="Group 7" transform="translate(150 30)">
      <g id="Group_4-2" data-name="Group 4" transform="translate(1670 168)">
        <g id="Group_2-5" data-name="Group 2" transform="translate(-11.5)">
          <circle id="Ellipse_1-10" data-name="Ellipse 1" cx="3" cy="3" r="3" transform="translate(0.5)" fill="#2a8faf"/>
          <circle id="Ellipse_2-10" data-name="Ellipse 2" cx="3" cy="3" r="3" transform="translate(12.5)" fill="#2a8faf"/>
          <circle id="Ellipse_3-10" data-name="Ellipse 3" cx="3" cy="3" r="3" transform="translate(24.5)" fill="#2a8faf"/>
          <circle id="Ellipse_4-10" data-name="Ellipse 4" cx="3" cy="3" r="3" transform="translate(36.5)" fill="#2a8faf"/>
          <circle id="Ellipse_5-10" data-name="Ellipse 5" cx="3" cy="3" r="3" transform="translate(48.5)" fill="#2a8faf"/>
          <circle id="Ellipse_6-7" data-name="Ellipse 6" cx="3" cy="3" r="3" transform="translate(60.5)" fill="#2a8faf"/>
          <circle id="Ellipse_7-7" data-name="Ellipse 7" cx="3" cy="3" r="3" transform="translate(72.5)" fill="#2a8faf"/>
          <circle id="Ellipse_8-7" data-name="Ellipse 8" cx="3" cy="3" r="3" transform="translate(84.5)" fill="#2a8faf"/>
        </g>
        <g id="Group_3-4" data-name="Group 3" transform="translate(-11.5)">
          <circle id="Ellipse_1-11" data-name="Ellipse 1" cx="3" cy="3" r="3" transform="translate(0.5)" fill="#2a8faf"/>
          <circle id="Ellipse_2-11" data-name="Ellipse 2" cx="3" cy="3" r="3" transform="translate(12.5)" fill="#2a8faf"/>
          <circle id="Ellipse_3-11" data-name="Ellipse 3" cx="3" cy="3" r="3" transform="translate(24.5)" fill="#2a8faf"/>
          <circle id="Ellipse_4-11" data-name="Ellipse 4" cx="3" cy="3" r="3" transform="translate(36.5)" fill="#2a8faf"/>
          <circle id="Ellipse_5-11" data-name="Ellipse 5" cx="3" cy="3" r="3" transform="translate(48.5)" fill="#2a8faf"/>
          <circle id="Ellipse_6-8" data-name="Ellipse 6" cx="3" cy="3" r="3" transform="translate(60.5)" fill="#2a8faf"/>
          <circle id="Ellipse_7-8" data-name="Ellipse 7" cx="3" cy="3" r="3" transform="translate(72.5)" fill="#2a8faf"/>
          <circle id="Ellipse_8-8" data-name="Ellipse 8" cx="3" cy="3" r="3" transform="translate(84.5)" fill="#2a8faf"/>
        </g>
        <circle id="Ellipse_1-12" data-name="Ellipse 1" cx="3" cy="3" r="3" transform="translate(49)" fill="#2a8faf"/>
        <circle id="Ellipse_2-12" data-name="Ellipse 2" cx="3" cy="3" r="3" transform="translate(25)" fill="#2a8faf"/>
        <circle id="Ellipse_3-12" data-name="Ellipse 3" cx="3" cy="3" r="3" transform="translate(37)" fill="#2a8faf"/>
        <circle id="Ellipse_4-12" data-name="Ellipse 4" cx="3" cy="3" r="3" transform="translate(49)" fill="#2a8faf"/>
        <circle id="Ellipse_5-12" data-name="Ellipse 5" cx="3" cy="3" r="3" transform="translate(61)" fill="#2a8faf"/>
      </g>
      <g id="Group_5-2" data-name="Group 5" transform="translate(1670 183)">
        <g id="Group_2-6" data-name="Group 2" transform="translate(-11.5)">
          <circle id="Ellipse_1-13" data-name="Ellipse 1" cx="3" cy="3" r="3" transform="translate(0.5)" fill="#2a8faf"/>
          <circle id="Ellipse_2-13" data-name="Ellipse 2" cx="3" cy="3" r="3" transform="translate(12.5)" fill="#2a8faf"/>
          <circle id="Ellipse_3-13" data-name="Ellipse 3" cx="3" cy="3" r="3" transform="translate(24.5)" fill="#2a8faf"/>
          <circle id="Ellipse_4-13" data-name="Ellipse 4" cx="3" cy="3" r="3" transform="translate(36.5)" fill="#2a8faf"/>
          <circle id="Ellipse_5-13" data-name="Ellipse 5" cx="3" cy="3" r="3" transform="translate(48.5)" fill="#2a8faf"/>
          <circle id="Ellipse_6-9" data-name="Ellipse 6" cx="3" cy="3" r="3" transform="translate(60.5)" fill="#2a8faf"/>
          <circle id="Ellipse_7-9" data-name="Ellipse 7" cx="3" cy="3" r="3" transform="translate(72.5)" fill="#2a8faf"/>
          <circle id="Ellipse_8-9" data-name="Ellipse 8" cx="3" cy="3" r="3" transform="translate(84.5)" fill="#2a8faf"/>
        </g>
        <g id="Group_3-5" data-name="Group 3" transform="translate(-11.5)">
          <circle id="Ellipse_1-14" data-name="Ellipse 1" cx="3" cy="3" r="3" transform="translate(0.5)" fill="#2a8faf"/>
          <circle id="Ellipse_2-14" data-name="Ellipse 2" cx="3" cy="3" r="3" transform="translate(12.5)" fill="#2a8faf"/>
          <circle id="Ellipse_3-14" data-name="Ellipse 3" cx="3" cy="3" r="3" transform="translate(24.5)" fill="#2a8faf"/>
          <circle id="Ellipse_4-14" data-name="Ellipse 4" cx="3" cy="3" r="3" transform="translate(36.5)" fill="#2a8faf"/>
          <circle id="Ellipse_5-14" data-name="Ellipse 5" cx="3" cy="3" r="3" transform="translate(48.5)" fill="#2a8faf"/>
          <circle id="Ellipse_6-10" data-name="Ellipse 6" cx="3" cy="3" r="3" transform="translate(60.5)" fill="#2a8faf"/>
          <circle id="Ellipse_7-10" data-name="Ellipse 7" cx="3" cy="3" r="3" transform="translate(72.5)" fill="#2a8faf"/>
          <circle id="Ellipse_8-10" data-name="Ellipse 8" cx="3" cy="3" r="3" transform="translate(84.5)" fill="#2a8faf"/>
        </g>
        <circle id="Ellipse_1-15" data-name="Ellipse 1" cx="3" cy="3" r="3" transform="translate(49)" fill="#2a8faf"/>
        <circle id="Ellipse_2-15" data-name="Ellipse 2" cx="3" cy="3" r="3" transform="translate(25)" fill="#2a8faf"/>
        <circle id="Ellipse_3-15" data-name="Ellipse 3" cx="3" cy="3" r="3" transform="translate(37)" fill="#2a8faf"/>
        <circle id="Ellipse_4-15" data-name="Ellipse 4" cx="3" cy="3" r="3" transform="translate(49)" fill="#2a8faf"/>
        <circle id="Ellipse_5-15" data-name="Ellipse 5" cx="3" cy="3" r="3" transform="translate(61)" fill="#2a8faf"/>
      </g>
      <g id="Group_6-2" data-name="Group 6" transform="translate(1671 198)">
        <g id="Group_2-7" data-name="Group 2" transform="translate(-11.5)">
          <circle id="Ellipse_1-16" data-name="Ellipse 1" cx="3" cy="3" r="3" transform="translate(0.5)" fill="#2a8faf"/>
          <circle id="Ellipse_2-16" data-name="Ellipse 2" cx="3" cy="3" r="3" transform="translate(12.5)" fill="#2a8faf"/>
          <circle id="Ellipse_3-16" data-name="Ellipse 3" cx="3" cy="3" r="3" transform="translate(24.5)" fill="#2a8faf"/>
          <circle id="Ellipse_4-16" data-name="Ellipse 4" cx="3" cy="3" r="3" transform="translate(36.5)" fill="#2a8faf"/>
          <circle id="Ellipse_5-16" data-name="Ellipse 5" cx="3" cy="3" r="3" transform="translate(48.5)" fill="#2a8faf"/>
          <circle id="Ellipse_6-11" data-name="Ellipse 6" cx="3" cy="3" r="3" transform="translate(60.5)" fill="#2a8faf"/>
          <circle id="Ellipse_7-11" data-name="Ellipse 7" cx="3" cy="3" r="3" transform="translate(72.5)" fill="#2a8faf"/>
          <circle id="Ellipse_8-11" data-name="Ellipse 8" cx="3" cy="3" r="3" transform="translate(84.5)" fill="#2a8faf"/>
        </g>
        <g id="Group_3-6" data-name="Group 3" transform="translate(-11.5)">
          <circle id="Ellipse_1-17" data-name="Ellipse 1" cx="3" cy="3" r="3" transform="translate(0.5)" fill="#2a8faf"/>
          <circle id="Ellipse_2-17" data-name="Ellipse 2" cx="3" cy="3" r="3" transform="translate(12.5)" fill="#2a8faf"/>
          <circle id="Ellipse_3-17" data-name="Ellipse 3" cx="3" cy="3" r="3" transform="translate(24.5)" fill="#2a8faf"/>
          <circle id="Ellipse_4-17" data-name="Ellipse 4" cx="3" cy="3" r="3" transform="translate(36.5)" fill="#2a8faf"/>
          <circle id="Ellipse_5-17" data-name="Ellipse 5" cx="3" cy="3" r="3" transform="translate(48.5)" fill="#2a8faf"/>
          <circle id="Ellipse_6-12" data-name="Ellipse 6" cx="3" cy="3" r="3" transform="translate(60.5)" fill="#2a8faf"/>
          <circle id="Ellipse_7-12" data-name="Ellipse 7" cx="3" cy="3" r="3" transform="translate(72.5)" fill="#2a8faf"/>
          <circle id="Ellipse_8-12" data-name="Ellipse 8" cx="3" cy="3" r="3" transform="translate(84.5)" fill="#2a8faf"/>
        </g>
        <circle id="Ellipse_1-18" data-name="Ellipse 1" cx="3" cy="3" r="3" transform="translate(49)" fill="#2a8faf"/>
        <circle id="Ellipse_2-18" data-name="Ellipse 2" cx="3" cy="3" r="3" transform="translate(25)" fill="#2a8faf"/>
        <circle id="Ellipse_3-18" data-name="Ellipse 3" cx="3" cy="3" r="3" transform="translate(37)" fill="#2a8faf"/>
        <circle id="Ellipse_4-18" data-name="Ellipse 4" cx="3" cy="3" r="3" transform="translate(49)" fill="#2a8faf"/>
        <circle id="Ellipse_5-18" data-name="Ellipse 5" cx="3" cy="3" r="3" transform="translate(61)" fill="#2a8faf"/>
      </g>
    </g>
  </g>
</svg>
